<?xml version="1.0" encoding="iso-8859-1"?>
<!-- Generator: Adobe Illustrator 19.0.0, SVG Export Plug-In . SVG Version: 6.00 Build 0)  -->
<svg version="1.1" id="Layer_1" xmlns="http://www.w3.org/2000/svg" xmlns:xlink="http://www.w3.org/1999/xlink" x="0px" y="0px"
	 viewBox="0 0 511.984 511.984" style="enable-background:new 0 0 511.984 511.984;" xml:space="preserve">
<path style="fill:#FFCE54;" d="M255.992,368.207c-64.826,0-117.559-52.732-117.559-117.551c0-64.818,52.732-117.551,117.559-117.551
	c64.812,0,117.543,52.733,117.543,117.551S320.804,368.207,255.992,368.207z"/>
<g>
	<path style="fill:#F6BB42;" d="M255.992,122.441c-70.811,0-128.215,57.405-128.215,128.215
		c0,70.803,57.404,128.207,128.215,128.207s128.215-57.404,128.215-128.207C384.207,179.846,326.803,122.441,255.992,122.441z
		 M331.568,326.239c-20.186,20.188-47.03,31.313-75.576,31.313s-55.389-11.125-75.576-31.313
		c-20.202-20.186-31.311-47.029-31.311-75.583c0-28.545,11.108-55.389,31.311-75.576c20.188-20.187,47.03-31.303,75.576-31.303
		s55.39,11.117,75.576,31.303c20.187,20.187,31.311,47.03,31.311,75.576C362.879,279.21,351.755,306.054,331.568,326.239z"/>
	<path style="fill:#F6BB42;" d="M95.998,239.992H32c-5.891,0-10.672,4.773-10.672,10.664c0,5.891,4.781,10.672,10.672,10.672h63.998
		c5.89,0,10.655-4.781,10.655-10.672S101.888,239.992,95.998,239.992z"/>
	<path style="fill:#F6BB42;" d="M479.985,239.992h-63.997l0,0c-5.891,0-10.672,4.773-10.672,10.664
		c0,5.891,4.781,10.664,10.672,10.664l63.997,0.008l0,0c5.891,0,10.656-4.781,10.656-10.672S485.876,239.992,479.985,239.992z"/>
</g>
<path style="fill:#FFCE54;" d="M406.832,84.732l-45.25,45.249l0,0c-4.171,4.164-4.171,10.922,0,15.086
	c4.156,4.164,10.922,4.164,15.078,0l45.265-45.249l0,0c4.156-4.164,4.156-10.921,0-15.085
	C417.754,80.568,411.004,80.568,406.832,84.732z"/>
<path style="fill:#F6BB42;" d="M245.32,26.664v63.998l0,0c0,5.89,4.781,10.671,10.672,10.671s10.656-4.773,10.656-10.671v-63.99
	v-0.008c0-5.891-4.766-10.664-10.656-10.664S245.32,20.773,245.32,26.664z"/>
<path style="fill:#FFCE54;" d="M90.06,99.817l45.248,45.249l0,0c4.172,4.164,10.922,4.164,15.094,0
	c4.156-4.164,4.156-10.914,0-15.086l-45.249-45.248l0,0c-4.172-4.164-10.937-4.164-15.093,0S85.904,95.645,90.06,99.817z"/>
<path style="fill:#4A89DC;" d="M463.579,317.521l-30.67-3.156l-52.671-23.999l-35.327,27.155l-28.67,6.188l-48.655-24.671l-18-4
	l-32.67,17.999l-22.672,4.484l-43.998-9.813l-26-17.343c0,0-9.843,17.999-17.593,19.999c-7.734,2-38.405,11.344-38.405,11.344
	l-21.999-4.188L0,294.366v172.868v28.75h511.984V294.366L463.579,317.521z"/>
<g>
	<path style="fill:#5D9CEC;" d="M0,385.612c0.031,0,0.063,0,0.078,0c3.141,0,5.234,0.844,5.922,1.281l28.499,19
		c8.188,5.469,18.688,8.469,29.577,8.469c10.891,0,21.391-3,29.578-8.469l28.498-19c0.688-0.438,2.781-1.281,5.922-1.281
		c3.141,0,5.234,0.844,5.922,1.281l28.499,19c8.188,5.469,18.687,8.469,29.577,8.469s21.406-3,29.593-8.469l28.483-19
		c0.688-0.438,2.781-1.281,5.922-1.281c3.142,0,5.25,0.844,5.922,1.281l28.499,19c8.188,5.469,18.688,8.469,29.578,8.469
		s21.389-3,29.576-8.469l28.499-19c0.688-0.438,2.781-1.281,5.922-1.281s5.25,0.844,5.922,1.281l28.5,19
		c8.187,5.469,18.687,8.469,29.575,8.469c10.891,0,21.391-3,29.594-8.469l28.483-19c0.672-0.438,2.75-1.281,5.844-1.281v-21.343
		c-6.406,0.031-12.812,1.656-17.671,4.875l-28.5,18.999c-4.875,3.266-11.313,4.891-17.75,4.891s-12.873-1.625-17.748-4.891
		l-28.499-18.999c-4.875-3.25-11.313-4.875-17.75-4.875s-12.875,1.625-17.75,4.875l-28.498,18.999
		c-4.875,3.266-11.313,4.891-17.749,4.891c-6.438,0-12.859-1.625-17.75-4.891l-28.499-18.999c-4.875-3.25-11.313-4.875-17.75-4.875
		s-12.859,1.625-17.749,4.875l-28.499,18.999c-4.875,3.266-11.313,4.891-17.75,4.891s-12.858-1.625-17.749-4.891l-28.499-18.999
		c-4.875-3.25-11.313-4.875-17.75-4.875c-6.422,0-12.858,1.625-17.749,4.875l-28.499,18.999c-4.875,3.266-11.313,4.891-17.75,4.891
		c-6.421,0-12.858-1.625-17.749-4.891l-28.499-18.999c-4.875-3.25-11.313-4.875-17.75-4.875c-0.016,0-0.047,0-0.078,0L0,385.612
		L0,385.612z"/>
	<path style="fill:#5D9CEC;" d="M0,303.991c0.031,0,0.063,0,0.078,0c3.141,0,5.234,0.844,5.922,1.297l28.499,18.998
		c8.188,5.453,18.688,8.469,29.577,8.469c10.891,0,21.391-3.016,29.578-8.469l28.498-18.998c0.688-0.453,2.781-1.297,5.922-1.297
		c3.141,0,5.234,0.844,5.922,1.297l28.499,18.998c8.188,5.453,18.687,8.469,29.577,8.469s21.406-3.016,29.593-8.469l28.483-18.998
		c0.688-0.453,2.781-1.297,5.922-1.297c3.142,0,5.25,0.844,5.922,1.297l28.499,18.998c8.188,5.453,18.688,8.469,29.578,8.469
		s21.389-3.016,29.576-8.469l28.499-18.998c0.688-0.453,2.781-1.297,5.922-1.297s5.25,0.844,5.922,1.297l28.5,18.998
		c8.187,5.453,18.687,8.469,29.575,8.469c10.891,0,21.391-3.016,29.594-8.469l28.483-18.998c0.672-0.453,2.75-1.281,5.844-1.297
		v-21.328c-6.406,0.016-12.812,1.641-17.671,4.875l-28.5,19c-4.875,3.265-11.313,4.89-17.75,4.89s-12.873-1.625-17.748-4.89
		l-28.499-19c-4.875-3.25-11.313-4.891-17.75-4.891s-12.875,1.641-17.75,4.891l-28.498,19c-4.875,3.265-11.313,4.89-17.749,4.89
		c-6.438,0-12.859-1.625-17.75-4.89l-28.499-19c-4.875-3.25-11.313-4.891-17.75-4.891s-12.859,1.641-17.749,4.891l-28.499,19
		c-4.875,3.265-11.313,4.89-17.75,4.89s-12.858-1.625-17.749-4.89l-28.499-19c-4.875-3.25-11.313-4.891-17.75-4.891
		c-6.422,0-12.858,1.641-17.749,4.891l-28.499,19c-4.875,3.265-11.313,4.89-17.75,4.89c-6.421,0-12.858-1.625-17.749-4.89
		l-28.499-19c-4.875-3.25-11.313-4.891-17.75-4.891c-0.016,0-0.047,0.016-0.078,0.016L0,303.991L0,303.991z"/>
	<path style="fill:#5D9CEC;" d="M0,467.234c0.031,0,0.047-0.016,0.078-0.016c3.141,0,5.234,0.859,5.922,1.297l28.499,19
		c8.188,5.469,18.688,8.469,29.577,8.469c10.891,0,21.391-3,29.578-8.469l28.498-19c0.688-0.438,2.781-1.297,5.922-1.297
		c3.141,0,5.234,0.859,5.922,1.297l28.499,19c8.188,5.469,18.687,8.469,29.577,8.469s21.391-3,29.577-8.469l28.499-19
		c0.672-0.438,2.781-1.297,5.922-1.297c3.142,0,5.25,0.859,5.922,1.297l28.499,19c8.188,5.469,18.688,8.469,29.578,8.469
		s21.389-3,29.576-8.469l28.499-19c0.672-0.438,2.781-1.297,5.922-1.297s5.25,0.859,5.922,1.297l28.5,19
		c8.187,5.469,18.687,8.469,29.575,8.469c10.891,0,21.391-3,29.578-8.469l28.499-19c0.672-0.438,2.75-1.281,5.844-1.281v-21.342
		c-6.406,0.016-12.812,1.641-17.671,4.875l-28.5,18.998c-4.875,3.25-11.313,4.875-17.75,4.875s-12.873-1.625-17.748-4.875
		l-28.499-18.998c-4.875-3.25-11.313-4.875-17.75-4.875s-12.875,1.625-17.75,4.875l-28.498,18.998
		c-4.875,3.25-11.313,4.875-17.749,4.875c-6.438,0-12.875-1.625-17.75-4.875l-28.499-18.998c-4.875-3.25-11.313-4.875-17.75-4.875
		s-12.875,1.625-17.749,4.875l-28.499,18.998c-4.875,3.25-11.313,4.875-17.75,4.875s-12.874-1.625-17.749-4.875l-28.499-18.998
		c-4.891-3.25-11.313-4.875-17.75-4.875c-6.422,0-12.858,1.625-17.749,4.875l-28.499,18.998c-4.891,3.25-11.313,4.875-17.75,4.875
		c-6.421,0-12.858-1.625-17.749-4.875l-28.499-18.998c-4.891-3.25-11.313-4.875-17.75-4.875c-0.016,0-0.047,0-0.078,0L0,467.234
		L0,467.234z"/>
</g>
<g>
</g>
<g>
</g>
<g>
</g>
<g>
</g>
<g>
</g>
<g>
</g>
<g>
</g>
<g>
</g>
<g>
</g>
<g>
</g>
<g>
</g>
<g>
</g>
<g>
</g>
<g>
</g>
<g>
</g>
</svg>
